<?xml version="1.0" standalone="no"?>
<!DOCTYPE svg PUBLIC "-//W3C//DTD SVG 20010904//EN"
 "http://www.w3.org/TR/2001/REC-SVG-20010904/DTD/svg10.dtd">
<svg version="1.0" xmlns="http://www.w3.org/2000/svg"
 width="1080.000000pt" height="1080.000000pt" viewBox="0 0 1080.000000 1080.000000"
 preserveAspectRatio="xMidYMid meet">

<g transform="translate(0.000000,1080.000000) scale(0.100000,-0.100000)"
fill="#000000" stroke="none">
<path d="M1880 8624 c-316 -34 -512 -102 -689 -236 -139 -105 -261 -288 -312
-463 -45 -158 -49 -230 -49 -940 0 -424 -4 -703 -11 -760 -37 -307 -196 -513
-410 -532 l-59 -6 0 -283 c0 -317 -8 -286 81 -298 111 -16 229 -104 294 -221
42 -76 81 -206 95 -315 6 -51 10 -353 10 -755 0 -532 3 -691 15 -770 58 -403
268 -656 657 -793 152 -54 375 -87 506 -75 l62 6 0 333 0 334 -31 0 c-48 0
-147 28 -218 62 -74 35 -202 152 -252 230 -18 27 -44 79 -58 116 l-26 67 -6
760 c-5 745 -6 762 -27 840 -43 155 -125 294 -225 379 -28 25 -65 56 -82 71
l-30 25 40 33 c163 132 244 253 297 442 21 78 22 96 28 840 5 751 6 761 27
818 73 192 248 351 440 401 34 9 75 16 92 16 l31 0 0 335 0 335 -27 0 c-16 0
-50 2 -78 4 -27 2 -66 2 -85 0z"/>
<path d="M8778 8623 l-48 -4 0 -335 0 -334 31 0 c17 0 58 -7 92 -16 192 -50
367 -209 440 -401 21 -57 22 -67 27 -818 6 -744 7 -762 28 -840 53 -189 134
-310 297 -442 l40 -33 -30 -25 c-16 -15 -54 -46 -82 -71 -100 -85 -182 -224
-225 -379 -21 -78 -22 -95 -27 -840 l-6 -760 -26 -67 c-14 -37 -40 -89 -58
-116 -50 -78 -178 -195 -252 -230 -71 -34 -170 -62 -218 -62 l-31 0 0 -334 0
-333 63 -6 c130 -12 353 21 505 75 389 137 599 390 657 793 12 79 15 238 15
770 0 402 4 704 10 755 14 109 53 239 95 315 65 117 183 205 294 221 89 12 81
-19 81 298 l0 283 -59 6 c-214 19 -373 225 -410 532 -7 57 -11 336 -11 760 0
710 -4 782 -49 940 -31 105 -102 240 -173 328 -147 181 -390 308 -673 351
-105 17 -230 24 -297 19z"/>
<path d="M2320 7075 l0 -345 510 0 510 0 0 -1665 0 -1665 395 0 395 0 0 1665
0 1665 510 0 510 0 0 345 0 345 -1415 0 -1415 0 0 -345z"/>
<path d="M5770 5410 l0 -2012 588 5 c471 3 609 8 697 21 494 72 842 246 1054
527 228 302 346 726 366 1319 19 539 -57 1019 -211 1350 -126 268 -301 453
-554 584 -131 68 -232 106 -391 145 -243 60 -306 64 -956 69 l-593 3 0 -2011z
m1214 1285 c333 -58 522 -247 606 -609 65 -283 83 -788 40 -1126 -40 -305
-132 -536 -263 -657 -146 -135 -342 -193 -649 -193 l-158 0 0 1300 0 1300 169
0 c105 0 201 -6 255 -15z"/>
</g>
</svg>
